<svg width="375" height="812" viewBox="0 0 375 812" fill="none" xmlns="http://www.w3.org/2000/svg">
  <!-- Status Bar -->
  <rect width="375" height="44" fill="#FAF7F2"/>
  <text x="21" y="30" font-family="SF Pro, -apple-system, sans-serif" font-size="15" font-weight="600" fill="#2D2926">9:41</text>
  <rect x="336" y="17" width="25" height="12" rx="3" stroke="#2D2926" stroke-width="1"/>
  <rect x="338" y="19" width="18" height="8" rx="2" fill="#2D2926"/>
  <rect x="361" y="20" width="1.5" height="5" rx="0.5" fill="#2D2926"/>

  <!-- Background -->
  <rect y="44" width="375" height="768" fill="#FAF7F2"/>

  <!-- Header Section -->
  <g transform="translate(0, 80)">
    <!-- Logo/Illustration Area -->
    <circle cx="187.5" cy="60" r="48" fill="rgba(139,111,92,0.1)"/>
    <circle cx="187.5" cy="60" r="32" fill="rgba(139,111,92,0.2)"/>
    <!-- Mother and child icon -->
    <circle cx="180" cy="48" r="12" fill="#8B6F5C"/>
    <path d="M168 76 C168 64 176 58 180 58 C184 58 192 64 192 76" fill="#8B6F5C"/>
    <circle cx="196" cy="58" r="8" fill="#C4A98C"/>
    <path d="M188 76 C188 68 192 64 196 64 C200 64 204 68 204 76" fill="#C4A98C"/>

    <!-- App Name -->
    <text x="187.5" y="140" font-family="Georgia, serif" font-size="32" font-weight="700" fill="#2D2926" text-anchor="middle">माँ</text>
    <text x="187.5" y="168" font-family="Georgia, serif" font-size="18" fill="#5C5550" text-anchor="middle">Maa</text>
    <text x="187.5" y="196" font-family="-apple-system, sans-serif" font-size="14" fill="#8A837C" text-anchor="middle">Women's Health Companion</text>
  </g>

  <!-- Language Selection Header -->
  <text x="24" y="320" font-family="-apple-system, sans-serif" font-size="16" font-weight="600" fill="#2D2926">Choose your language</text>
  <text x="24" y="340" font-family="-apple-system, sans-serif" font-size="13" fill="#5C5550">अपनी भाषा चुनें</text>

  <!-- Voice Supported Languages Section -->
  <text x="24" y="380" font-family="-apple-system, sans-serif" font-size="12" font-weight="500" fill="#8A837C">VOICE SUPPORTED</text>

  <!-- Language Grid - Row 1 -->
  <g transform="translate(24, 396)">
    <!-- Hindi - Selected -->
    <rect width="105" height="56" rx="8" fill="#8B6F5C"/>
    <text x="52.5" y="28" font-family="-apple-system, sans-serif" font-size="20" fill="#FFFFFF" text-anchor="middle">हिन्दी</text>
    <text x="52.5" y="44" font-family="-apple-system, sans-serif" font-size="11" fill="rgba(255,255,255,0.8)" text-anchor="middle">Hindi</text>

    <!-- Bengali -->
    <rect x="113" width="105" height="56" rx="8" fill="#F5F0EB"/>
    <text x="165.5" y="28" font-family="-apple-system, sans-serif" font-size="20" fill="#2D2926" text-anchor="middle">বাংলা</text>
    <text x="165.5" y="44" font-family="-apple-system, sans-serif" font-size="11" fill="#8A837C" text-anchor="middle">Bengali</text>

    <!-- Tamil -->
    <rect x="226" width="101" height="56" rx="8" fill="#F5F0EB"/>
    <text x="276.5" y="28" font-family="-apple-system, sans-serif" font-size="20" fill="#2D2926" text-anchor="middle">தமிழ்</text>
    <text x="276.5" y="44" font-family="-apple-system, sans-serif" font-size="11" fill="#8A837C" text-anchor="middle">Tamil</text>
  </g>

  <!-- Language Grid - Row 2 -->
  <g transform="translate(24, 460)">
    <!-- Telugu -->
    <rect width="105" height="56" rx="8" fill="#F5F0EB"/>
    <text x="52.5" y="28" font-family="-apple-system, sans-serif" font-size="20" fill="#2D2926" text-anchor="middle">తెలుగు</text>
    <text x="52.5" y="44" font-family="-apple-system, sans-serif" font-size="11" fill="#8A837C" text-anchor="middle">Telugu</text>

    <!-- Kannada -->
    <rect x="113" width="105" height="56" rx="8" fill="#F5F0EB"/>
    <text x="165.5" y="28" font-family="-apple-system, sans-serif" font-size="20" fill="#2D2926" text-anchor="middle">ಕನ್ನಡ</text>
    <text x="165.5" y="44" font-family="-apple-system, sans-serif" font-size="11" fill="#8A837C" text-anchor="middle">Kannada</text>

    <!-- Marathi -->
    <rect x="226" width="101" height="56" rx="8" fill="#F5F0EB"/>
    <text x="276.5" y="28" font-family="-apple-system, sans-serif" font-size="20" fill="#2D2926" text-anchor="middle">मराठी</text>
    <text x="276.5" y="44" font-family="-apple-system, sans-serif" font-size="11" fill="#8A837C" text-anchor="middle">Marathi</text>
  </g>

  <!-- Language Grid - Row 3 -->
  <g transform="translate(24, 524)">
    <!-- Malayalam -->
    <rect width="105" height="56" rx="8" fill="#F5F0EB"/>
    <text x="52.5" y="28" font-family="-apple-system, sans-serif" font-size="18" fill="#2D2926" text-anchor="middle">മലയാളം</text>
    <text x="52.5" y="44" font-family="-apple-system, sans-serif" font-size="11" fill="#8A837C" text-anchor="middle">Malayalam</text>

    <!-- Gujarati -->
    <rect x="113" width="105" height="56" rx="8" fill="#F5F0EB"/>
    <text x="165.5" y="28" font-family="-apple-system, sans-serif" font-size="20" fill="#2D2926" text-anchor="middle">ગુજરાતી</text>
    <text x="165.5" y="44" font-family="-apple-system, sans-serif" font-size="11" fill="#8A837C" text-anchor="middle">Gujarati</text>

    <!-- Punjabi -->
    <rect x="226" width="101" height="56" rx="8" fill="#F5F0EB"/>
    <text x="276.5" y="28" font-family="-apple-system, sans-serif" font-size="20" fill="#2D2926" text-anchor="middle">ਪੰਜਾਬੀ</text>
    <text x="276.5" y="44" font-family="-apple-system, sans-serif" font-size="11" fill="#8A837C" text-anchor="middle">Punjabi</text>
  </g>

  <!-- Translation Only Section -->
  <text x="24" y="612" font-family="-apple-system, sans-serif" font-size="12" font-weight="500" fill="#8A837C">TRANSLATION ONLY</text>

  <!-- Language Grid - Row 4 -->
  <g transform="translate(24, 628)">
    <!-- Assamese -->
    <rect width="105" height="48" rx="8" fill="#EDE6DD"/>
    <text x="52.5" y="24" font-family="-apple-system, sans-serif" font-size="16" fill="#5C5550" text-anchor="middle">অসমীয়া</text>
    <text x="52.5" y="40" font-family="-apple-system, sans-serif" font-size="10" fill="#8A837C" text-anchor="middle">Assamese</text>

    <!-- Urdu -->
    <rect x="113" width="105" height="48" rx="8" fill="#EDE6DD"/>
    <text x="165.5" y="24" font-family="-apple-system, sans-serif" font-size="16" fill="#5C5550" text-anchor="middle">اردو</text>
    <text x="165.5" y="40" font-family="-apple-system, sans-serif" font-size="10" fill="#8A837C" text-anchor="middle">Urdu</text>

    <!-- Nepali -->
    <rect x="226" width="101" height="48" rx="8" fill="#EDE6DD"/>
    <text x="276.5" y="24" font-family="-apple-system, sans-serif" font-size="16" fill="#5C5550" text-anchor="middle">नेपाली</text>
    <text x="276.5" y="40" font-family="-apple-system, sans-serif" font-size="10" fill="#8A837C" text-anchor="middle">Nepali</text>
  </g>

  <!-- See all 22 languages link -->
  <text x="187.5" y="704" font-family="-apple-system, sans-serif" font-size="13" fill="#8B6F5C" text-anchor="middle">See all 22 languages →</text>

  <!-- Continue Button -->
  <rect x="24" y="728" width="327" height="52" rx="12" fill="#8B6F5C"/>
  <text x="187.5" y="760" font-family="-apple-system, sans-serif" font-size="16" font-weight="600" fill="#FFFFFF" text-anchor="middle">Continue</text>

  <!-- Home Indicator -->
  <rect x="140" y="796" width="95" height="5" rx="2.5" fill="#2D2926"/>
</svg>